<?xml version='1.0' encoding='iso-8859-1'?>
<svg version="1.1" xmlns="http://www.w3.org/2000/svg" viewBox="0 0 30 30" xmlns:xlink="http://www.w3.org/1999/xlink" enable-background="new 0 0 30 30">
  <g>
    <g class="main_image">
      <path d="m26,13h-2v-6c0-0.553-0.447-1-1-1h-6v-2c0-2.209-1.791-4-4-4s-4,1.791-4,4v2h-8c-0.553,0-1,0.447-1,1v7c0,0.553 0.447,1 1,1h3c1.104,0 2,0.896 2,2s-0.896,2-2,2h-3c-0.553,0-1,0.447-1,1v9c0,0.553 0.447,1 1,1h9c0.553,0 1-0.447 1-1v-3c0-1.104 0.896-2 2-2s2,0.896 2,2v3c0,0.553 0.447,1 1,1h7c0.553,0 1-0.447 1-1v-8h2c2.209,0 4-1.791 4-4s-1.791-4-4-4zm0,6h-3c-0.553,0-1,0.447-1,1v8h-5v-2c0-2.209-1.791-4-4-4s-4,1.791-4,4v2h-7v-7h2c2.209,0 4-1.791 4-4s-1.791-4-4-4h-2v-5h8c0.553,0 1-0.447 1-1v-3c0-1.104 0.896-2 2-2s2,0.896 2,2v3c0,0.553 0.447,1 1,1h6v6c0,0.553 0.447,1 1,1h3c1.104,0 2,0.896 2,2s-0.896,2-2,2z"/>
    </g>
  </g>
</svg>
